<svg width="102" height="80" viewBox="0 0 102 80" fill="none" xmlns="http://www.w3.org/2000/svg">
<path d="M85.0283 1.65276C84.3259 1.43558 83.5951 1.32418 82.8599 1.32221C81.6931 1.3209 80.5444 1.60997 79.5172 2.16337C78.4901 2.71677 77.6168 3.5171 76.9761 4.4922L76.9596 4.51203V4.53517L64.1209 25.2078L59.6684 32.3775L45.3721 55.4004C45.3421 55.4523 45.2986 55.4951 45.2462 55.5243C45.1938 55.5534 45.1345 55.5677 45.0746 55.5657C45.0141 55.5683 44.9541 55.5543 44.9011 55.5251C44.848 55.496 44.804 55.4528 44.7738 55.4004L30.4576 32.3643L25.9985 25.1946L13.2095 4.6145L13.1466 4.51534C12.5053 3.53461 11.6297 2.72911 10.5989 2.17162C9.56822 1.61413 8.41484 1.3222 7.243 1.32221C6.50888 1.32421 5.77917 1.43562 5.07789 1.65276C3.59746 2.08478 2.29939 2.99006 1.38241 4.23001C0.465435 5.46997 -0.0199292 6.97626 0.000627046 8.51831V56.6829C-0.0199292 58.225 0.465435 59.7313 1.38241 60.9712C2.29939 62.2112 3.59746 63.1165 5.07789 63.5485C5.77922 63.7654 6.5089 63.8768 7.243 63.879C8.40623 63.8762 9.55063 63.5852 10.5739 63.032C11.5972 62.4788 12.4675 61.6807 13.107 60.709L13.1235 60.6826V60.6595L24.4779 42.0527L20.0486 34.8831L7.52728 55.4037V9.78763L38.3545 59.3868C39.0594 60.5301 40.0459 61.4732 41.2196 62.1261C42.3934 62.7789 43.715 63.1196 45.0581 63.1155C45.7338 63.115 46.4068 63.0295 47.0612 62.8609C48.348 62.5285 49.5281 61.8718 50.489 60.9537C50.9782 60.4877 51.4059 59.9612 51.7616 59.3868L82.5624 9.80416V55.4202L70.094 34.9822L65.6382 42.1486L76.8769 60.5768L76.9529 60.6991C77.5953 61.6772 78.471 62.4799 79.5011 63.035C80.5311 63.5902 81.6832 63.8802 82.8533 63.879C83.5874 63.877 84.3171 63.7656 85.0184 63.5485C86.4991 63.1169 87.7975 62.2118 88.7146 60.9717C89.6316 59.7317 90.1168 58.2251 90.0957 56.6829V8.51831C90.1168 6.97754 89.6329 5.47221 88.7178 4.23243C87.8028 2.99264 86.5069 2.08658 85.0283 1.65276Z" fill="url(#paint0_linear_2982_30670)"/>
<path d="M79.3495 3.17329C78.7093 3.17258 78.0846 3.37002 77.5612 3.73853C77.3491 3.97603 77.1536 4.22785 76.9761 4.49219L76.9596 4.51202V4.53516L64.121 25.2078L59.6685 32.3775L45.3721 55.4004C45.3422 55.4523 45.2987 55.4951 45.2463 55.5242C45.1939 55.5534 45.1345 55.5677 45.0746 55.5657C45.0142 55.5683 44.9541 55.5543 44.9011 55.5251C44.8481 55.496 44.804 55.4528 44.7738 55.4004L30.4577 32.3643L25.9985 25.1946L13.2095 4.61449L13.1467 4.51533C13.0014 4.30424 12.8447 4.1012 12.6773 3.90711C12.1174 3.43326 11.4077 3.17325 10.6742 3.17329C9.8422 3.17329 9.04431 3.50378 8.45602 4.09207C7.86773 4.68036 7.53723 5.47825 7.53723 6.31022V9.781L38.3644 59.3637C39.0693 60.5069 40.0559 61.4501 41.2296 62.1029C42.4033 62.7557 43.725 63.0964 45.068 63.0923C45.7438 63.0918 46.4168 63.0063 47.0712 62.8378C48.358 62.5053 49.5381 61.8487 50.499 60.9305C50.9882 60.4645 51.4158 59.938 51.7716 59.3637L82.5724 9.76117L82.493 6.297C82.4895 5.46618 82.1566 4.67068 81.5672 4.08506C80.9779 3.49944 80.1803 3.17153 79.3495 3.17329Z" fill="url(#paint1_linear_2982_30670)"/>
<path d="M82.4864 58.9274L82.4269 55.1789L70.0973 34.9657L65.6415 42.1321L76.8802 60.5603L76.9563 60.6826C77.1738 60.9977 77.4147 61.296 77.6769 61.5751C78.1501 61.8772 78.6959 62.0463 79.2571 62.0646C79.8182 62.083 80.374 61.9499 80.866 61.6794C81.358 61.4089 81.768 61.0109 82.0532 60.5273C82.3383 60.0436 82.4879 59.4921 82.4864 58.9307V58.9274Z" fill="url(#paint2_linear_2982_30670)"/>
<path d="M10.6642 62.0676C11.3683 62.0667 12.0513 61.8266 12.6012 61.3867C12.7859 61.17 12.9591 60.9438 13.1202 60.709L13.1367 60.6826V60.6594L24.4911 42.0527L20.0485 34.8831L7.60987 55.2648L7.52393 58.9274C7.52349 59.3399 7.60442 59.7484 7.76208 60.1296C7.91973 60.5108 8.15103 60.8571 8.44271 61.1488C8.7344 61.4405 9.08074 61.6718 9.46193 61.8294C9.84312 61.9871 10.2517 62.068 10.6642 62.0676Z" fill="url(#paint3_linear_2982_30670)"/>
<path d="M82.4864 6.31021C82.4864 5.47825 82.1559 4.68036 81.5676 4.09207C80.9794 3.50378 80.1815 3.17328 79.3495 3.17328C78.7094 3.17257 78.0847 3.37002 77.5612 3.73852C77.3491 3.97603 77.1537 4.22784 76.9761 4.49218L76.9596 4.51201V4.53515L45.3589 55.4004C45.3301 55.4463 45.2911 55.485 45.2449 55.5135C45.1987 55.542 45.1466 55.5594 45.0926 55.5645C45.0386 55.5696 44.9842 55.5623 44.9335 55.543C44.8828 55.5237 44.8372 55.493 44.8003 55.4533L45.6333 56.9672C47.4976 60.2198 51.1171 60.2727 52.3765 58.22L53.1599 57.1325L82.579 9.77439L82.4864 6.31021Z" fill="url(#paint4_linear_2982_30670)"/>
<path d="M37.7462 6.13172L36.229 8.41252L27.4529 22.6824L31.9484 29.9281L44.7308 8.96454C44.7606 8.91148 44.8044 8.86766 44.8575 8.83792C44.9105 8.80817 44.9708 8.79365 45.0316 8.79596C45.0924 8.79365 45.1526 8.80817 45.2057 8.83792C45.2588 8.86766 45.3026 8.91148 45.3324 8.96454L44.473 7.3845C42.6219 4.13188 39.0023 4.07899 37.7462 6.13172Z" fill="url(#paint5_linear_2982_30670)"/>
<path d="M62.5542 22.6527L51.7815 5.03429C51.0763 3.88066 50.0867 2.92751 48.9073 2.26619C47.728 1.60487 46.3986 1.25757 45.0465 1.25757C43.6944 1.25757 42.365 1.60487 41.1857 2.26619C40.0064 2.92751 39.0167 3.88066 38.3116 5.03429L36.2456 8.41252L37.7628 6.13172C39.0189 4.079 42.6385 4.13189 44.5028 7.38451L45.2697 8.81249L45.6465 9.44715L47.1307 11.8635L58.1116 29.8521L62.5542 22.6527Z" fill="url(#paint6_linear_2982_30670)"/>
<path d="M95.715 5.56982V2.66097H94.7234V2.57172H96.981V2.66097H95.9894V5.56982H95.715Z" fill="url(#paint7_linear_2982_30670)"/>
<path d="M97.0208 5.56982L97.4339 2.57172H97.4967L98.6405 5.21613L99.7908 2.57172H99.8503L100.267 5.56982H99.9891L99.6586 3.13035L98.5909 5.56982H98.5281L97.4637 3.13035L97.1331 5.56982H97.0208Z" fill="url(#paint8_linear_2982_30670)"/>
<path d="M97.5332 8.40261C96.702 8.40326 95.8893 8.15734 95.1979 7.69594C94.5064 7.23455 93.9675 6.57843 93.6491 5.8106C93.3307 5.04278 93.2472 4.19777 93.4092 3.38248C93.5712 2.5672 93.9714 1.8183 94.5591 1.23054C95.1469 0.642775 95.8958 0.242571 96.7111 0.080568C97.5264 -0.0814349 98.3714 0.00204251 99.1392 0.320439C99.907 0.638836 100.563 1.17784 101.025 1.86925C101.486 2.56066 101.732 3.37339 101.731 4.20461C101.729 5.31745 101.287 6.38422 100.5 7.17111C99.7128 7.95801 98.6461 8.40086 97.5332 8.40261ZM97.5332 0.363606C96.7731 0.361644 96.0295 0.585247 95.3966 1.00611C94.7636 1.42697 94.2698 2.02616 93.9775 2.72784C93.6853 3.42952 93.6078 4.20212 93.7549 4.94786C93.902 5.69359 94.267 6.37892 94.8038 6.91709C95.3406 7.45526 96.025 7.82206 96.7703 7.97107C97.5157 8.12008 98.2885 8.0446 98.9909 7.75418C99.6933 7.46376 100.294 6.97145 100.716 6.33959C101.139 5.70772 101.364 4.96471 101.364 4.20461C101.363 3.1879 100.96 2.21293 100.242 1.49307C99.5239 0.773217 98.5499 0.367103 97.5332 0.363606Z" fill="url(#paint9_linear_2982_30670)"/>
<path d="M3.3887 79.7951L0.691406 70.3149H3.10443C3.66306 72.5064 4.61505 76.0169 4.82991 77.7291C5.16046 75.9805 6.11906 72.5197 6.76363 70.3149H8.95519C9.55018 72.4007 10.6079 76.2648 10.8625 77.6564H10.8889C11.1633 75.9276 12.0921 72.4403 12.6408 70.3149H14.9547L12.1153 79.7951H9.6229C9.01469 77.706 8.04617 74.0931 7.73876 72.7312C7.45118 74.341 6.562 77.468 5.88767 79.7951H3.3887Z" fill="white"/>
<path d="M24.977 76.1623C24.977 74.5294 24.977 72.8271 25.0432 71.7759C24.5705 73.5278 23.6813 76.3111 22.564 79.7951H20.5377C19.6684 76.7375 18.6701 73.5741 18.1677 71.7759C18.2371 72.88 18.323 74.7244 18.323 76.3408V79.7951H16.2505V70.3149H19.5758C20.5311 73.2535 21.4038 75.8285 21.6881 77.1275C22.088 75.6301 22.9442 73.1378 23.8697 70.3149H27.2083V79.7984H24.9903L24.977 76.1623Z" fill="white"/>
<path d="M41.9244 77.2796C41.2633 79.0018 39.9973 80 37.6008 80C34.6259 80 32.9004 77.7226 32.9004 74.9889C32.9004 72.0139 34.8275 69.9513 37.7099 69.9513C40.1196 69.9513 41.4517 71.1512 41.9244 72.7411H41.6269C41.184 71.3793 39.9577 70.2091 37.7099 70.2091C35.0291 70.2091 33.1979 72.1197 33.1979 74.9757C33.1979 77.5738 34.8804 79.729 37.6273 79.729C39.8254 79.729 40.9824 78.8134 41.6269 77.2631L41.9244 77.2796Z" fill="white"/>
<path d="M53.2258 74.8798C53.2258 77.7358 51.3946 79.9835 48.337 79.9835C45.4678 79.9835 43.4878 77.7887 43.4878 74.9625C43.4878 72.2552 45.4942 69.9513 48.3899 69.9513C51.1632 69.9513 53.2258 72.1197 53.2258 74.8798ZM43.7853 74.9492C43.7853 77.4812 45.5637 79.729 48.3502 79.729C51.031 79.729 52.9283 77.7457 52.9283 74.9063C52.9283 72.3775 51.0574 70.2091 48.3766 70.2091C47.763 70.2138 47.1564 70.3405 46.5921 70.5818C46.0279 70.8231 45.5173 71.1742 45.09 71.6147C44.6627 72.0552 44.3273 72.5763 44.1034 73.1476C43.8794 73.7189 43.7712 74.3291 43.7853 74.9426V74.9492Z" fill="white"/>
<path d="M63.8796 77.2796C63.2185 79.0018 61.9525 80 59.556 80C56.5811 80 54.8556 77.7226 54.8556 74.9889C54.8556 72.0139 56.7827 69.9513 59.6651 69.9513C62.0748 69.9513 63.407 71.1512 63.8796 72.7411H63.5822C63.1392 71.3793 61.9129 70.2091 59.6651 70.2091C56.9843 70.2091 55.1531 72.1197 55.1531 74.9757C55.1531 77.5738 56.8356 79.729 59.5825 79.729C61.7773 79.729 62.9376 78.8134 63.5822 77.2631L63.8796 77.2796Z" fill="white"/>
<path d="M66.21 70.1396H66.4942V75.5144C68.742 73.8451 70.7749 72.2089 73.373 70.1396H73.806L68.4445 74.3674L74.1134 79.795H73.7102L68.2296 74.5294L66.4942 75.8516V79.8182H66.21V70.1396Z" fill="white"/>
<path d="M75.8125 70.1396H79.7791C81.6236 70.1396 82.7541 71.2305 82.7541 72.7411C82.7541 74.2517 81.855 75.4615 79.713 75.4615H76.077V79.795H75.8059L75.8125 70.1396ZM76.0836 75.2037H79.7593C81.6038 75.2037 82.4797 74.212 82.4797 72.7411C82.4797 71.5544 81.5906 70.3975 79.799 70.3975H76.0836V75.2037Z" fill="white"/>
<path d="M85.0383 70.1396V79.795H84.7573V70.1396H85.0383Z" fill="white"/>
<path d="M90.4261 70.3975H86.5884V70.1396H94.5481V70.3975H90.7104V79.795H90.4261V70.3975Z" fill="white"/>
<defs>
<linearGradient id="paint0_linear_2982_30670" x1="45.0481" y1="13.7807" x2="45.0481" y2="82.5684" gradientUnits="userSpaceOnUse">
<stop stop-color="#24E9E0"/>
<stop offset="0.13" stop-color="#21DBE1"/>
<stop offset="0.38" stop-color="#19B4E5"/>
<stop offset="0.72" stop-color="#0C78EB"/>
<stop offset="1" stop-color="#0040F1"/>
</linearGradient>
<linearGradient id="paint1_linear_2982_30670" x1="45.0449" y1="-8.60425" x2="45.0449" y2="61.4263" gradientUnits="userSpaceOnUse">
<stop stop-color="#0040F1"/>
<stop offset="0.28" stop-color="#0C78EB"/>
<stop offset="0.62" stop-color="#19B4E5"/>
<stop offset="0.87" stop-color="#21DBE1"/>
<stop offset="1" stop-color="#24E9E0"/>
</linearGradient>
<linearGradient id="paint2_linear_2982_30670" x1="74.0639" y1="13.7807" x2="74.0639" y2="82.5684" gradientUnits="userSpaceOnUse">
<stop stop-color="#D615FF"/>
<stop offset="0.11" stop-color="#D216FF" stop-opacity="0.98"/>
<stop offset="0.23" stop-color="#C618FE" stop-opacity="0.93"/>
<stop offset="0.36" stop-color="#B31CFD" stop-opacity="0.83"/>
<stop offset="0.5" stop-color="#9722FB" stop-opacity="0.71"/>
<stop offset="0.64" stop-color="#7429F9" stop-opacity="0.54"/>
<stop offset="0.79" stop-color="#4931F6" stop-opacity="0.34"/>
<stop offset="0.94" stop-color="#173BF3" stop-opacity="0.11"/>
<stop offset="1" stop-color="#0040F1" stop-opacity="0"/>
</linearGradient>
<linearGradient id="paint3_linear_2982_30670" x1="16.0158" y1="13.7807" x2="16.0158" y2="82.5684" gradientUnits="userSpaceOnUse">
<stop stop-color="#D615FF"/>
<stop offset="0.11" stop-color="#D216FF" stop-opacity="0.98"/>
<stop offset="0.23" stop-color="#C618FE" stop-opacity="0.93"/>
<stop offset="0.36" stop-color="#B31CFD" stop-opacity="0.83"/>
<stop offset="0.5" stop-color="#9722FB" stop-opacity="0.71"/>
<stop offset="0.64" stop-color="#7429F9" stop-opacity="0.54"/>
<stop offset="0.79" stop-color="#4931F6" stop-opacity="0.34"/>
<stop offset="0.94" stop-color="#173BF3" stop-opacity="0.11"/>
<stop offset="1" stop-color="#0040F1" stop-opacity="0"/>
</linearGradient>
<linearGradient id="paint4_linear_2982_30670" x1="63.6847" y1="6.4259" x2="63.6847" y2="91.8073" gradientUnits="userSpaceOnUse">
<stop stop-color="#24A1E0"/>
<stop offset="0.21" stop-color="#1F93E3"/>
<stop offset="0.6" stop-color="#116DE9"/>
<stop offset="1" stop-color="#0040F1"/>
</linearGradient>
<linearGradient id="paint5_linear_2982_30670" x1="36.4009" y1="10.5842" x2="36.4009" y2="63.1452" gradientUnits="userSpaceOnUse">
<stop stop-color="#540CC2"/>
<stop offset="0.26" stop-color="#530DC3" stop-opacity="0.99"/>
<stop offset="0.41" stop-color="#4F0FC5" stop-opacity="0.95"/>
<stop offset="0.53" stop-color="#4913C8" stop-opacity="0.87"/>
<stop offset="0.64" stop-color="#4118CD" stop-opacity="0.77"/>
<stop offset="0.73" stop-color="#361FD3" stop-opacity="0.64"/>
<stop offset="0.82" stop-color="#2827DB" stop-opacity="0.48"/>
<stop offset="0.9" stop-color="#1831E4" stop-opacity="0.29"/>
<stop offset="0.98" stop-color="#063CEE" stop-opacity="0.07"/>
<stop offset="1" stop-color="#0040F1" stop-opacity="0"/>
</linearGradient>
<linearGradient id="paint6_linear_2982_30670" x1="49.3916" y1="-1.63954" x2="49.3916" y2="51.3181" gradientUnits="userSpaceOnUse">
<stop stop-color="#D615FF"/>
<stop offset="0.24" stop-color="#D415FF" stop-opacity="0.99"/>
<stop offset="0.38" stop-color="#CD17FE" stop-opacity="0.96"/>
<stop offset="0.49" stop-color="#C119FE" stop-opacity="0.9"/>
<stop offset="0.59" stop-color="#B11CFD" stop-opacity="0.83"/>
<stop offset="0.67" stop-color="#9B21FB" stop-opacity="0.73"/>
<stop offset="0.76" stop-color="#8126F9" stop-opacity="0.6"/>
<stop offset="0.83" stop-color="#622CF7" stop-opacity="0.46"/>
<stop offset="0.9" stop-color="#3D34F5" stop-opacity="0.29"/>
<stop offset="0.97" stop-color="#153CF2" stop-opacity="0.1"/>
<stop offset="1" stop-color="#0040F1" stop-opacity="0"/>
</linearGradient>
<linearGradient id="paint7_linear_2982_30670" x1="94.7201" y1="4.07242" x2="96.9777" y2="4.07242" gradientUnits="userSpaceOnUse">
<stop stop-color="#D615FF"/>
<stop offset="0.24" stop-color="#D415FF" stop-opacity="0.99"/>
<stop offset="0.38" stop-color="#CD17FE" stop-opacity="0.96"/>
<stop offset="0.49" stop-color="#C119FE" stop-opacity="0.9"/>
<stop offset="0.59" stop-color="#B11CFD" stop-opacity="0.83"/>
<stop offset="0.67" stop-color="#9B21FB" stop-opacity="0.73"/>
<stop offset="0.76" stop-color="#8126F9" stop-opacity="0.6"/>
<stop offset="0.83" stop-color="#622CF7" stop-opacity="0.46"/>
<stop offset="0.9" stop-color="#3D34F5" stop-opacity="0.29"/>
<stop offset="0.97" stop-color="#153CF2" stop-opacity="0.1"/>
<stop offset="1" stop-color="#0040F1" stop-opacity="0"/>
</linearGradient>
<linearGradient id="paint8_linear_2982_30670" x1="97.0208" y1="4.07242" x2="100.267" y2="4.07242" gradientUnits="userSpaceOnUse">
<stop stop-color="#D615FF"/>
<stop offset="0.24" stop-color="#D415FF" stop-opacity="0.99"/>
<stop offset="0.38" stop-color="#CD17FE" stop-opacity="0.96"/>
<stop offset="0.49" stop-color="#C119FE" stop-opacity="0.9"/>
<stop offset="0.59" stop-color="#B11CFD" stop-opacity="0.83"/>
<stop offset="0.67" stop-color="#9B21FB" stop-opacity="0.73"/>
<stop offset="0.76" stop-color="#8126F9" stop-opacity="0.6"/>
<stop offset="0.83" stop-color="#622CF7" stop-opacity="0.46"/>
<stop offset="0.9" stop-color="#3D34F5" stop-opacity="0.29"/>
<stop offset="0.97" stop-color="#153CF2" stop-opacity="0.1"/>
<stop offset="1" stop-color="#0040F1" stop-opacity="0"/>
</linearGradient>
<linearGradient id="paint9_linear_2982_30670" x1="93.3319" y1="4.20461" x2="105.116" y2="4.20461" gradientUnits="userSpaceOnUse">
<stop stop-color="#D615FF"/>
<stop offset="0.11" stop-color="#D216FF" stop-opacity="0.98"/>
<stop offset="0.23" stop-color="#C618FE" stop-opacity="0.93"/>
<stop offset="0.36" stop-color="#B31CFD" stop-opacity="0.83"/>
<stop offset="0.5" stop-color="#9722FB" stop-opacity="0.71"/>
<stop offset="0.64" stop-color="#7429F9" stop-opacity="0.54"/>
<stop offset="0.79" stop-color="#4931F6" stop-opacity="0.34"/>
<stop offset="0.94" stop-color="#173BF3" stop-opacity="0.11"/>
<stop offset="1" stop-color="#0040F1" stop-opacity="0"/>
</linearGradient>
</defs>
</svg>
